<svg xmlns="http://www.w3.org/2000/svg" viewBox="0 0 157 49">
    <g fill="none" fill-rule="evenodd">
        <path fill="#1a214d" d="M9.4 34.9V19.3h9.4v-7.5H9.4V0L0 6.1v29C0 43.5 5.5 49 15 49c1.4 0 2.7-.1 3.8-.3v-7.8l-2.4.2c-5.2 0-7-2.5-7-6.2M147 49l.1-.1 9.9-6V12.3h-10zM34.6 26.4c1-5.4 4.6-8.2 9.3-8.2 4.7 0 7.9 2.5 8.7 8.2h-18zM43.8 11a18.2 18.2 0 0 0-18.7 19c0 11.1 7 19 18.7 19 10.5 0 15.8-5.5 17.4-11.7h-9c-.9 2.1-3 4.3-8 4.3-5.5 0-9.1-3.4-9.8-9.5h27.1v-1.9C61.5 18.6 55 11 43.8 11zM78 21.7c0-2.4 2.1-4 6.6-4 4.1 0 6.6 1.7 6.8 5h8.5C99.8 15.2 94.5 11 84.7 11c-9.9 0-16 4.2-16 10.9 0 14.9 22.4 9 22.4 16.5 0 2.4-2.1 3.8-7.1 3.8-5.3 0-7.5-1.7-7.8-4.9h-8.4C68 44.6 73.2 49 84 49c10.3 0 16.6-4.1 16.5-10.8C100.5 23 78 29 78 21.7M117 21.7c0-2.4 2-4 6.6-4 4 0 6.5 1.7 6.8 5h8.5c-.2-7.4-5.5-11.7-15.3-11.7-9.9 0-16 4.2-16 10.9 0 14.9 22.5 9 22.5 16.5 0 2.4-2.2 3.8-7.2 3.8-5.3 0-7.5-1.7-7.7-4.9h-8.4c0 7.4 5.3 11.7 16.1 11.7 10.3 0 16.6-4.1 16.5-10.8C139.4 23 117 29 117 21.7"/>
        <path d="M0 49h157V0H0z"/>
        <path fill="#1a214d" d="M147 7.3h10V0h-10z"/>
    </g>
</svg>