<svg xmlns="http://www.w3.org/2000/svg" viewBox="0 0 131.8 27">
  <defs>
    <linearGradient id="a" x1="108.8" x2="127.9" y1="4" y2="23.1" gradientUnits="userSpaceOnUse">
      <stop offset=".2" stop-color="#c869a8"/>
      <stop offset=".5" stop-color="#6e7ebb"/>
      <stop offset=".8" stop-color="#00bcf1"/>
    </linearGradient>
  </defs>
  <path fill="url(#a)" d="M118.3 0a13.5 13.5 0 1 0 13.5 13.5A13.5 13.5 0 0 0 118.3 0zm0 26.3a12.8 12.8 0 1 1 12.8-12.8 12.8 12.8 0 0 1-12.8 12.8zm-4.4-23h-.2a11.2 11.2 0 1 0 4.6-1h-.2c-.2 0-.4.1-.4.4s.2.4.4.4h.2a10.3 10.3 0 1 1-4.2 1c.2-.1.2-.3.1-.6a.4.4 0 0 0-.3-.2zm-.2 2.7a.4.4 0 0 0-.2 0 8.8 8.8 0 0 0 0 14.9.4.4 0 0 0 .2 0 .5.5 0 0 0 .5-.2.5.5 0 0 0-.1-.7 7.8 7.8 0 0 1 0-13 .4.4 0 0 0 .2-.3.7.7 0 0 0-.1-.4.6.6 0 0 0-.5-.3zm4.5 15.3a.4.4 0 0 0-.3 0 .6.6 0 0 0-.2.5c0 .3.2.5.5.5h.1a8.8 8.8 0 1 0 0-17.7h-.1c-.3 0-.5.2-.5.6s.2.5.5.5h.1a7.8 7.8 0 0 1 0 15.6zm-5-11.6a.6.6 0 0 1 .8 0 .6.6 0 0 1 .2.8 5.2 5.2 0 0 0 0 6 .6.6 0 0 1-.2.8.6.6 0 0 1-.8 0 6.3 6.3 0 0 1-1.2-3.8 6.3 6.3 0 0 1 1.1-3.8z"/>
  <path fill="#3e53a4" d="M118.4 17.1c-.5 0-.7-.3-.7-.8s.3-.7.7-.7a2 2 0 1 0-.2-4.2 2.2 2.2 0 0 0-1.4.5v9.6c0 .5-.4.7-.8.7s-.8-.2-.8-.7V12v-.7a1.2 1.2 0 0 1 .7-.8 5.3 5.3 0 0 1 2.5-.6 3.6 3.6 0 0 1 0 7.2zm0 2.8c-.5 0-.7-.3-.7-.7s.3-.8.7-.8a4.9 4.9 0 0 0 0-9.8 5.7 5.7 0 0 0-2.3.5.7.7 0 0 1-.9-.7V2.6c0-.4.3-.6.8-.6s.8.2.8.6v4.7a6.2 6.2 0 0 1 1.5-.2 6.4 6.4 0 0 1 0 12.8z"/>
  <path fill="#4e4e4e" d="M93.5 18a4.8 4.8 0 0 0 2.6.6c2.2 0 3.5-1.1 3.5-3 0-1.3-.8-2-2.8-2.7-1.3-.5-2-.9-2-1.5 0-.9.8-1.3 1.8-1.3a5 5 0 0 1 2.7.7V9.6a4.8 4.8 0 0 0-2.6-.7c-2 0-3.3 1-3.3 2.5 0 1.2.8 2 2.5 2.6s2.2 1 2.2 1.8-.7 1.6-2 1.6a4.8 4.8 0 0 1-2.6-.7zm-8.2-5.1c.2-1.7 1-2.8 2.7-2.8s2.5 1 2.5 2.8zm6.5 3.8a7.2 7.2 0 0 1-3 .6c-2.3 0-3.5-1-3.5-3.2H92v-1c0-2.6-1.3-4.2-3.9-4.2-2.9 0-4.3 2-4.3 4.8 0 3.2 1.6 4.9 4.8 4.9a6.7 6.7 0 0 0 3.2-.7zm-11.4 1.7L83 9h-1.5l-1.9 7.3-2.2-7.3H76l-2.1 7.4-2-7.4h-1.6l2.7 9.3h1.5l2.3-7.4 2 7.4zm-15.1-1c-1.9 0-2.9-1.5-2.9-3.6s1-3.6 2.9-3.6 2.9 1.4 2.9 3.5-1 3.6-2.9 3.6zm0 1.2c3 0 4.4-2.1 4.4-4.9S68.4 9 65.3 9c-3 0-4.4 2.1-4.4 4.8s1.3 5 4.4 5zm-12.7-8a4.4 4.4 0 0 1 2.2-.5 3 3 0 0 1 3.2 3.3c0 2.5-1.4 4-3.8 4a4.3 4.3 0 0 1-1.6-.3zm-1.4 7.5a9.4 9.4 0 0 0 2.9.5c3.4 0 5.4-2 5.4-5.2A4.2 4.2 0 0 0 55 8.9a5.7 5.7 0 0 0-2.3.5V4.7h-1.5zM42 23l1.7-4.7L47.6 9H46l-2.8 7.6L40.3 9h-1.6l3.7 9.3-1.8 4.7zM31 12.9c.3-1.7 1.2-2.8 2.8-2.8s2.5 1 2.5 2.8zm6.6 3.8a7.2 7.2 0 0 1-3 .6c-2.3 0-3.4-1-3.5-3.2h6.7v-1c0-2.6-1.4-4.2-4-4.2-2.8 0-4.2 2-4.2 4.8 0 3.2 1.6 4.9 4.7 4.9a6.8 6.8 0 0 0 3.3-.6zM28 18.4v-6c0-2.7-1.6-3.5-3.6-3.5a13 13 0 0 0-4.2.8v8.7h1.5v-7.8a7.3 7.3 0 0 1 2.3-.4c1.7 0 2.5.6 2.5 2.6v5.6zM18.9 17a5.4 5.4 0 0 1-1.6.2c-.7 0-1.2-.1-1.2-1.3v-5.7h2.5V9.1H16V6.8h-1.4v2.3h-1.5v1.2h1.5v6c0 1.6.9 2.3 2.2 2.3a5.5 5.5 0 0 0 2-.3zm-8-9.7a1 1 0 0 0 1-1 1 1 0 1 0-2 0 1 1 0 0 0 1 1zm.7 1.7H10v9.3h1.5zM1.5 10.7a3.9 3.9 0 0 1 2.2-.5 3 3 0 0 1 3.1 3.3c0 2.4-1.4 3.8-3.8 3.8a4.1 4.1 0 0 1-1.5-.2zm0 12.4v-4.7a5.7 5.7 0 0 0 1.5.2c3.3 0 5.4-1.9 5.4-5.2A4.2 4.2 0 0 0 3.8 9 5.8 5.8 0 0 0 0 10.2v12.9z"/>
</svg>
