<svg xmlns="http://www.w3.org/2000/svg" viewBox="0 0 400 158.9">
  <path fill-rule="evenodd" d="M47.1 21.4c-2.2.7-5.4 3.6-6.8 6.1-1.4 2.7-1.4 99.2 0 102a15 15 0 0 0 6.7 6c1.2.5 16.1.7 45 .7h43l-.4-1.6-.8-4.7-.4-3H91.8c-39.4 0-41.6 0-42.6-1.2-1.8-2-1.7-93 .1-94.5 1.1-1 5.4-1.1 47.7-1.1h46.5l1 1.4c1 1.3 1 6 1 37.7v36.1l4 2.8a33 33 0 0 0 4.4 2.8c1 0 .4-81.5-.6-83.4a13 13 0 0 0-6.5-5.8C144 20.6 51 20.2 47 21.4m154.7 34c-.8 1-1.5 2-1.5 2.2 0 .9 5-.9 6.7-2.4l2.1-1.8h-2.9c-2.3 0-3.1.4-4.4 2m30.9 1.6c-.9 2.2 0 3.4 2.4 3.4 2.1 0 2.3-.1 2.3-2 0-2.3-4-3.4-4.7-1.4m20.7 0c-.9 2.2 0 3.4 2.4 3.4 2.1 0 2.3-.1 2.3-2 0-2.3-4-3.4-4.7-1.4m-29 3.4v3l-2.7-.4c-6.8-1-10.9 5-7.7 11.1 1.5 2.8 2.8 3.3 9.3 3.3h5.7v-20h-2.3c-2.3 0-2.3 0-2.3 3M195.7 68v9.4h14.7v-1.7c0-1.6-.2-1.7-5-1.7h-5V69.4h4.3c4.2 0 4.3 0 4.3-1.6s-.1-1.7-4.3-1.7h-4.4v-4h5c5 0 5 0 5-1.7v-1.6h-14.6V68m46-7c0 1-.3 1.7-1 1.7-.6 0-1 .6-1 1.6s.4 1.7 1 1.7c.8 0 1 .9 1 4 0 5.3 1.6 7.4 5.7 7.4 1.6 0 3-.3 3.3-.6.7-1-.4-3.5-1.5-3.3-2 .3-2.8-.8-2.8-4.2 0-3.2 0-3.3 2-3.3 1.7 0 2-.3 2-1.7s-.3-1.6-2-1.6-2-.3-2-1.7c0-1.5-.3-1.7-2.3-1.7-2 0-2.4.2-2.4 1.7m-9.3 9v7.4H237V62.8H232.4V70m20.7 0v7.4H257.8V62.8H253V70m11.2-6.2c-4.4 2.7-4.3 9.8.1 12.4 5.5 3.3 12.7-.3 12.7-6.2 0-6-7.4-9.5-12.8-6.2m14.8 6.3v7.3h4.5l.4-4.8c.6-9.2 5.8-9 5.8.1v4.7H294.5v-5.7c0-8.1-1-9-9.3-9l-6 .1v7.3m-56.3-3c2.6 1.8 1.1 7-2 7-.3 0-1.1-.7-1.9-1.4-3.1-3.2.3-8.2 3.9-5.6m48.2.2c3.2 3.2-.2 8.2-3.8 5.7-2.7-1.9-1.2-7 2-7 .2 0 1 .6 1.8 1.3m-205.5 4c-5.8 3.6-6.1 12.1-.5 15.8 6.2 4 14.4-.3 14.4-7.8a9.1 9.1 0 0 0-13.9-8m27.4-.3c-6.5 2.8-6.5 13.5 0 16.6 6.7 3.2 13.2-1 13.2-8.6 0-7-6.5-10.9-13.2-8m26.6.2c-7 3.8-5.8 14.4 1.8 16.9 8.4 2.8 15.6-7.4 10-14.4a9.3 9.3 0 0 0-11.8-2.5m165.1 17.1c-.8 2.2 0 3.4 2.5 3.4 2.1 0 2.3-.1 2.3-2 0-2.3-4-3.5-4.8-1.4m24.8 0c-.9 2.2 0 3.4 2.4 3.4 2.1 0 2.3-.1 2.3-2 0-2.3-4-3.5-4.7-1.4m-103.8 3.4v2.9l-2.7-.4c-6.8-.9-10.9 5-7.7 11.2 1.5 2.8 2.8 3.3 9.3 3.3h5.8v-20H208c-2.3 0-2.3 0-2.3 3m33.4 7v10h4.6v-20h-4.6v10m96.1 0v10H340v-20H335.2v10m-118.1-3.7c-6.7 3.7-3.3 13.7 4.8 13.7 4.8 0 7.3-1.6 5.3-3.5-1-1-1.7-1-3-.5-2 .7-4.7 0-5.5-1.3-.3-.4 1.3-.7 5-.7 5.2 0 5.3 0 5.3-1.6 0-5.6-6.7-9-11.9-6.1m33.2.2c-4.4 2.7-4.3 9.8.1 12.4 5.5 3.3 12.7-.3 12.7-6.2 0-6-7.4-9.5-12.8-6.2m16.8.8c-5 5-1.3 12.5 5.7 12 4-.4 4.6.1 2.1 1.7-1.6 1-5.4.8-6.2-.4-.7-1.1-3 1.2-3 3 0 .8 4.7 1.8 8 1.8 6.2 0 7.4-1.9 7.4-12v-8h-2c-1 0-2 .3-2 .6 0 .5-.4.5-1.3 0a8 8 0 0 0-8.7 1.3m17.4 5.4v7.3h4.6V94.2h-4.6v7.3m10.3-5c-6.7 6.6 3.2 16.8 10.6 11 3.2-2.5.3-5.2-3.1-3-2.4 1.6-5.1 0-5.1-3s2.7-4.6 5-3c3.5 2.2 6.4-.5 3.2-3-3-2.3-7.8-1.9-10.6 1m14.4 5v7.3H313.9V94.2H309.2v7.3m11.4-6.4c-6.7 3.7-3.3 13.7 4.8 13.7 4.8 0 7.3-1.6 5.3-3.5-1-1-1.7-1-3-.5-1.9.7-4.7 0-5.5-1.3-.3-.4 1.3-.7 5-.7 5.2 0 5.4 0 5.4-1.6 0-5.6-6.8-9-12-6.1m25-.1c-4.6 2.5-3.1 6.6 2.9 7.9 1.9.4 3.4 1 3.4 1.3 0 .9-2.6 1.2-4.8.6-3-.8-2.9-.8-3.7 1-1 2 1 3 6 3 7.7 0 10-7.2 2.6-8.4-3.5-.5-4.8-1.3-3.4-2.2a3 3 0 0 1 2.2-.4l2.3.7c2 .5 3.3-2.7 1.5-3.7a15 15 0 0 0-9 .2m-141.4 3.5c2.6 1.9 1.1 7-2 7-.3 0-1.1-.6-1.9-1.3-3.1-3.2.3-8.2 3.9-5.7m20 .9c.2.5-.8.8-3 .7H218l1.6-1.3c1.6-1.3 4.1-1 4.6.6m32.9-.6c3.2 3.2-.3 8.2-3.9 5.7-2.6-1.9-1.1-7 2-7 .3 0 1.2.6 1.9 1.3m17.9-.3c3.5 2.5 0 7.7-3.5 5.4-2.7-1.7-1.4-6.4 1.6-6.4l1.9 1m52.7.9c.2.5-.8.8-3 .7h-3.2l1.6-1.3c1.6-1.3 4.1-1 4.6.6m-193.2 5.8c.2.7 1.9 10 3.7 20.7 4 22.4 4 22.3 4.6 22.3.3 0 8-10.5 10.2-14 .2-.4 4.4-1.4 9.3-2.3 8.4-1.6 10-2 9.3-2.6l-36.6-25c-.7-.2-.8 0-.5 1"/>
</svg>
