<svg xmlns="http://www.w3.org/2000/svg" viewBox="0 0 360 102">
  <path d="M68 88c.7.3 1 .7 1 1.2l-.2.6c-.1.2-.3.3-.5.3l-.4-.1-.4-.2-.4-.3-.6-.2-.7-.1c-.6 0-1.2.1-1.7.4-.5.3-.9.7-1.2 1.2-.3.5-.4 1.1-.4 1.8a3.4 3.4 0 0 0 1.5 3c.5.3 1 .4 1.7.4.6 0 1.2-.1 1.6-.3l.4-.2.3-.2.3-.1.6.2.2.6c0 .3-.2.5-.5.8s-.8.5-1.3.6c-.6.2-1.2.2-1.8.2-.9 0-1.8-.2-2.5-.7a4.9 4.9 0 0 1-2.3-4.4c0-1 .2-1.8.6-2.6.4-.8 1-1.4 1.7-1.8.7-.4 1.6-.7 2.5-.7 1.1.2 1.9.3 2.5.6zM79.4 88.1l.3.6v5c0 1.3-.4 2.3-1.1 3s-1.7 1.1-3 1.1a4 4 0 0 1-3-1.1 4 4 0 0 1-1.1-3v-5c0-.2.1-.5.3-.6l.6-.3c.3 0 .5.1.6.3l.3.6v5c0 1.6.8 2.4 2.3 2.4.8 0 1.3-.2 1.7-.6.4-.4.6-1 .6-1.8v-5c0-.2.1-.5.3-.6l.6-.3c.2 0 .5.1.6.3zM82.2 95.6c0-.2.1-.5.4-.6l.4-.1.6.3 1.2 1c.4.2.9.3 1.5.3.5 0 .9-.1 1.3-.3.4-.2.5-.5.5-1 0-.4-.2-.7-.6-1l-1.6-.6-1.7-.6c-.5-.2-.9-.5-1.2-.9s-.5-.9-.5-1.5.2-1.1.5-1.5.7-.8 1.3-1c.5-.2 1.1-.4 1.7-.4l1.8.3a3 3 0 0 1 1.4 1l.2.5-.3.6-.5.2a.8.8 0 0 1-.5-.2l-1-.7c-.4-.2-.8-.2-1.3-.2s-.9.1-1.2.3c-.3.2-.5.5-.5 1 0 .4.2.8.6 1l1.7.6 1.6.6c.4.2.8.5 1.1.9.3.4.4.9.4 1.5s-.2 1.1-.5 1.5c-.3.4-.8.8-1.3 1-.5.2-1.1.3-1.7.3-.8 0-1.5-.1-2.2-.4-.7-.3-1.2-.7-1.7-1.3l.1-.6zM95 89.5v5.6c0 .6.3.9.8.9l.4-.1.4-.1.4.2.2.5c0 .3-.1.5-.4.7-.3.2-.6.3-1 .3l-1.1-.1c-.3-.1-.6-.3-.9-.7-.3-.4-.4-.9-.4-1.6v-5.6h-1.1l-.6-.2c-.2-.1-.2-.4-.2-.6l.2-.6c.1-.2.4-.2.6-.2h1.1v-1.6c0-.2.1-.5.3-.6l.6-.3c.2 0 .5.1.6.3l.3.6v1.6h1.6l.6.2c.2.1.2.4.2.6l-.2.6-.6.2H95zM108.6 95.3c-.4.8-1 1.4-1.8 1.8s-1.6.7-2.5.7-1.7-.2-2.5-.7-1.3-1-1.8-1.8c-.4-.8-.7-1.6-.7-2.6s.2-1.9.7-2.6c.4-.8 1-1.4 1.8-1.8s1.6-.7 2.5-.7 1.7.2 2.5.7 1.3 1 1.8 1.8c.4.8.7 1.7.7 2.6-.1 1-.3 1.8-.7 2.6zm-1.6-4.4c-.3-.5-.7-.9-1.1-1.2a3 3 0 0 0-1.6-.4 3 3 0 0 0-1.6.4c-.5.3-.9.7-1.1 1.2-.3.5-.4 1.1-.4 1.8s.1 1.3.4 1.8c.3.5.7.9 1.1 1.2.5.3 1 .4 1.6.4a3 3 0 0 0 1.6-.4c.5-.3.9-.7 1.1-1.2.3-.5.4-1.1.4-1.8s-.1-1.3-.4-1.8zM126.3 91.7v5l-.2.6-.6.3c-.2 0-.5-.1-.6-.3l-.3-.6v-5c0-1.6-.7-2.4-2.1-2.4-.5 0-.9.1-1.3.3a2 2 0 0 0-.9.9l-.3 1.2v5c0 .2-.1.5-.3.6l-.6.3c-.3 0-.5-.1-.6-.3l-.2-.6v-5c0-.7-.2-1.3-.5-1.8-.3-.4-.8-.7-1.6-.7-.7 0-1.3.2-1.8.7-.5.5-.7 1-.7 1.7v5c0 .2-.1.5-.3.6l-.6.3c-.2 0-.5-.1-.6-.3l-.2-.6v-8c0-.2.1-.5.3-.6l.6-.3c.3 0 .5.1.6.3l.3.6v.7c.3-.5.8-.9 1.3-1.2.5-.3 1.1-.5 1.8-.5 1.5 0 2.5.7 3 2.1.3-.5.7-1 1.4-1.4.6-.4 1.3-.6 2-.6 2-.1 3 1.3 3 4zM137.9 92.9c-.2.2-.4.2-.6.2h-6.6c.1.9.4 1.6 1 2.2.6.5 1.3.8 2.2.8a3.3 3.3 0 0 0 2.5-1l.5-.2.5.2.2.5c0 .3-.1.5-.4.7-.4.4-.8.7-1.4.9-.6.2-1.2.4-1.8.4a6 6 0 0 1-2.7-.6 4 4 0 0 1-1.8-1.8 6.4 6.4 0 0 1 0-5.4c.4-.8 1-1.4 1.7-1.8.7-.4 1.5-.6 2.3-.6a4.6 4.6 0 0 1 3.9 2.3c.4.7.6 1.5.7 2.4 0 .4 0 .6-.2.8zm-6.1-3.1c-.5.4-.8 1-1 1.8h5.5v-.1c-.1-.7-.4-1.2-.9-1.6s-1.1-.6-1.8-.6c-.7-.1-1.3.1-1.8.5zM146.5 87.8c.2.2.4.4.4.6l-.2.7c-.2.2-.3.2-.6.2l-.5-.1-.6-.1c-.4 0-.8.1-1.1.4-.4.3-.7.6-.9 1.1-.2.5-.3 1-.3 1.6v4.5c0 .2-.1.5-.3.6l-.6.3c-.3 0-.5-.1-.6-.3l-.2-.6v-8c0-.2.1-.5.3-.6l.6-.3c.3 0 .5.1.6.3l.3.6v1c.3-.6.7-1.1 1.2-1.5a3 3 0 0 1 1.9-.6l.6.2zM163.1 92.9c-.2.2-.4.2-.6.2h-6.6c.1.9.4 1.6 1 2.2.6.5 1.3.8 2.2.8a3.3 3.3 0 0 0 2.5-1l.5-.2.5.2.2.5c0 .3-.1.5-.4.7-.4.4-.8.7-1.4.9-.6.2-1.2.4-1.8.4a6 6 0 0 1-2.7-.6 4 4 0 0 1-1.8-1.8 6.4 6.4 0 0 1 0-5.4c.4-.8 1-1.4 1.7-1.8.7-.4 1.5-.6 2.3-.6a4.6 4.6 0 0 1 3.9 2.3c.4.7.6 1.5.7 2.4.1.4 0 .6-.2.8zm-6.1-3.1c-.5.4-.8 1-1 1.8h5.5v-.1c-.1-.7-.4-1.2-.9-1.6-.5-.4-1.1-.6-1.8-.6-.7-.1-1.3.1-1.8.5zM173.3 96.7c0 .2-.1.5-.3.6l-.6.3c-.3 0-.5-.1-.7-.4l-2.5-3.2-2.5 3.2-.3.3-.4.1-.6-.2c-.2-.2-.3-.3-.3-.6l.2-.6 2.8-3.5-2.9-3.6-.2-.5c0-.2.1-.5.3-.6l.6-.3c.3 0 .5.1.7.4l2.6 3.2 2.4-3.2c.2-.3.4-.4.7-.4l.6.2c.2.2.2.3.2.6l-.2.6-2.8 3.5 2.8 3.6c.3.2.4.3.4.5zM182.8 88.3a4 4 0 0 1 1.6 1.8c.4.8.6 1.6.6 2.6s-.2 1.8-.6 2.6a4.5 4.5 0 0 1-3.9 2.5c-.6 0-1.3-.1-1.8-.4a5 5 0 0 1-1.4-1v4.2c0 .2-.1.5-.3.6l-.6.3c-.2 0-.5-.1-.6-.3l-.3-.6V88.7l.2-.7.6-.3c.3 0 .5.1.6.3.2.2.3.4.3.7v.5c.3-.4.7-.8 1.3-1.1a4 4 0 0 1 1.8-.5c1.1 0 1.8.2 2.5.7zm-.9 7.4c.5-.3.8-.7 1.1-1.2.3-.5.4-1.1.4-1.7 0-.6-.1-1.2-.4-1.7-.3-.5-.6-.9-1.1-1.2a3 3 0 0 0-1.6-.4 3 3 0 0 0-1.6.4 3.4 3.4 0 0 0-1.5 3c0 .6.1 1.2.4 1.8.3.5.6.9 1.1 1.2.5.3 1 .4 1.6.4.6-.2 1.1-.3 1.6-.6zM196 92.9c-.2.2-.4.2-.6.2h-6.6c.1.9.4 1.6 1 2.2.6.5 1.3.8 2.2.8a3.3 3.3 0 0 0 2.5-1l.5-.2.5.2.2.5c0 .3-.1.5-.4.7-.4.4-.8.7-1.4.9-.6.2-1.2.4-1.8.4a6 6 0 0 1-2.7-.6 4 4 0 0 1-1.8-1.8 6.4 6.4 0 0 1 0-5.4c.4-.8 1-1.4 1.7-1.8.7-.4 1.5-.6 2.3-.6a4.6 4.6 0 0 1 3.9 2.3c.4.7.6 1.5.7 2.4l-.2.8zm-6.1-3.1c-.5.4-.8 1-1 1.8h5.5v-.1c-.1-.7-.4-1.2-.9-1.6s-1.1-.6-1.8-.6c-.7-.1-1.3.1-1.8.5zM204.6 87.8c.2.2.4.4.4.6l-.2.7c-.2.2-.3.2-.6.2l-.5-.1-.6-.1c-.4 0-.8.1-1.1.4-.4.3-.7.6-.9 1.1-.2.5-.3 1-.3 1.6v4.5c0 .2-.1.5-.3.6l-.6.3c-.3 0-.5-.1-.6-.3-.2-.2-.2-.4-.2-.6v-8c0-.2.1-.5.3-.6l.6-.3c.3 0 .5.1.6.3l.3.6v1c.3-.6.7-1.1 1.2-1.5a3 3 0 0 1 1.9-.6l.6.2zM207.2 86.3c-.2-.1-.2-.3-.2-.6v-.3c0-.3.1-.5.3-.6l.8-.2.8.2c.2.1.2.3.2.6v.3l-.2.6-.8.2c-.5 0-.8-.1-.9-.2zm1.4 11l-.6.3c-.2 0-.5-.1-.6-.3l-.3-.6v-8.1c0-.2.1-.5.3-.6l.6-.3c.3 0 .5.1.6.3l.3.6v8.1l-.3.6zM220.3 92.9c-.2.2-.4.2-.6.2h-6.6c.1.9.4 1.6 1 2.2.6.5 1.3.8 2.2.8a3.3 3.3 0 0 0 2.5-1l.5-.2.5.2.2.5c0 .3-.1.5-.4.7-.4.4-.8.7-1.4.9-.6.2-1.2.4-1.8.4a6 6 0 0 1-2.7-.6 4 4 0 0 1-1.8-1.8 6.4 6.4 0 0 1 0-5.4c.4-.8 1-1.4 1.7-1.8.7-.4 1.5-.6 2.3-.6a4.6 4.6 0 0 1 3.9 2.3c.4.7.6 1.5.7 2.4l-.2.8zm-6.1-3.1c-.5.4-.8 1-1 1.8h5.5v-.1c-.1-.7-.4-1.2-.9-1.6s-1.1-.6-1.8-.6c-.7-.1-1.3.1-1.8.5zM231.5 91.6v5.1c0 .2-.1.5-.3.6l-.6.3c-.2 0-.5-.1-.6-.3l-.3-.6v-5.1c0-.7-.2-1.3-.5-1.8a2 2 0 0 0-1.6-.7c-.5 0-1 .1-1.4.3-.4.2-.7.5-1 .9l-.3 1.2v5.1c0 .2-.1.5-.3.6l-.6.3c-.3 0-.5-.1-.6-.3l-.2-.6v-8c0-.2.1-.5.3-.6l.6-.3c.3 0 .5.1.6.3l.3.6v.7c.3-.5.8-.9 1.4-1.3.6-.3 1.2-.5 1.9-.5 2.1.1 3.2 1.4 3.2 4.1zM241.5 88c.7.3 1 .7 1 1.2l-.2.6c-.1.2-.3.3-.5.3l-.4-.1-.4-.2-.4-.3-.6-.2-.7-.1c-.6 0-1.2.1-1.7.4-.5.3-.9.7-1.2 1.2-.3.5-.4 1.1-.4 1.8a3.4 3.4 0 0 0 1.5 3c.5.3 1 .4 1.7.4.6 0 1.2-.1 1.6-.3l.4-.2.3-.2.3-.1.6.2.2.6c0 .3-.2.5-.5.8-.3.3-.8.5-1.3.6-.6.2-1.2.2-1.8.2-.9 0-1.8-.2-2.5-.7a4.9 4.9 0 0 1-2.3-4.4c0-1 .2-1.8.6-2.6.4-.8 1-1.4 1.7-1.8.7-.4 1.6-.7 2.5-.7 1 .2 1.8.3 2.5.6zM253.2 92.9c-.2.2-.4.2-.6.2H246c.1.9.4 1.6 1 2.2.6.5 1.3.8 2.2.8a3.3 3.3 0 0 0 2.5-1l.5-.2.5.2.2.5c0 .3-.1.5-.4.7-.4.4-.8.7-1.4.9-.6.2-1.2.4-1.8.4a6 6 0 0 1-2.7-.6 4 4 0 0 1-1.8-1.8 6.4 6.4 0 0 1 0-5.4c.4-.8 1-1.4 1.7-1.8.7-.4 1.5-.6 2.3-.6a4.6 4.6 0 0 1 3.9 2.3c.4.7.6 1.5.7 2.4.1.4 0 .6-.2.8zm-6.1-3.1c-.5.4-.8 1-1 1.8h5.5v-.1c-.1-.7-.4-1.2-.9-1.6-.5-.4-1.1-.6-1.8-.6-.7-.1-1.3.1-1.8.5zM256.1 97.3c-.2-.2-.2-.4-.2-.7v-.4l.2-.7c.1-.2.4-.2.7-.2h.2l.7.2c.2.2.2.4.2.7v.4c0 .6-.3 1-.9 1h-.2c-.3 0-.6-.1-.7-.3zM275.2 87.9c.2.2.3.4.3.7v8.1c0 .2-.1.5-.3.6l-.6.3c-.3 0-.5-.1-.6-.3l-.2-.6v-.5a4 4 0 0 1-3.1 1.6c-.8 0-1.6-.2-2.3-.7s-1.2-1-1.6-1.8a5.8 5.8 0 0 1 0-5.2 4.5 4.5 0 0 1 3.9-2.5c.7 0 1.3.1 1.8.4.6.3 1 .6 1.4 1v-.4l.2-.7c.1-.2.4-.3.6-.3l.5.3zm-2.9 7.8a3.4 3.4 0 0 0 1.5-3 4 4 0 0 0-.4-1.8 3.2 3.2 0 0 0-2.7-1.7 3 3 0 0 0-1.6.4 3.4 3.4 0 0 0-1.5 3 3.4 3.4 0 0 0 1.5 3c.5.3 1 .4 1.6.4.6.1 1.1 0 1.6-.3zM285.3 88c.7.3 1 .7 1 1.2l-.2.6c-.1.2-.3.3-.5.3l-.4-.1-.4-.2-.4-.3-.6-.2-.7-.1c-.6 0-1.2.1-1.7.4-.5.3-.9.7-1.2 1.2-.3.5-.4 1.1-.4 1.8a3.4 3.4 0 0 0 1.5 3c.5.3 1 .4 1.7.4.6 0 1.2-.1 1.6-.3l.4-.2.3-.2.3-.1.6.2.2.6c0 .3-.2.5-.5.8s-.8.5-1.3.6c-.6.2-1.2.2-1.8.2-.9 0-1.8-.2-2.5-.7a4.9 4.9 0 0 1-2.3-4.4c0-1 .2-1.8.6-2.6.4-.8 1-1.4 1.7-1.8.7-.4 1.6-.7 2.5-.7 1.1.2 1.9.3 2.5.6zM291.4 89.5v5.6c0 .6.3.9.8.9l.4-.1.4-.1.4.2.2.5c0 .3-.1.5-.4.7-.3.2-.6.3-1 .3l-1.1-.1c-.3-.1-.6-.3-.9-.7-.3-.4-.4-.9-.4-1.6v-5.6h-1.1l-.6-.2c-.2-.1-.2-.4-.2-.6l.2-.6c.1-.2.4-.2.6-.2h1.1v-1.6c0-.2.1-.5.3-.6l.6-.3c.2 0 .5.1.6.3l.3.6v1.6h1.6l.6.2c.2.1.2.4.2.6l-.2.6-.6.2h-1.8zM296.5 86.3c-.2-.1-.2-.3-.2-.6v-.3c0-.3.1-.5.3-.6l.8-.2.8.2c.2.1.2.3.2.6v.3l-.2.6-.8.2c-.5 0-.8-.1-.9-.2zm1.4 11l-.6.3c-.2 0-.5-.1-.6-.3l-.3-.6v-8.1c0-.2.1-.5.3-.6l.6-.3c.3 0 .5.1.6.3l.3.6v8.1l-.3.6zM309.3 87.9c.2.2.2.3.2.6l-.1.5-3.6 8.1-.3.4-.4.2-.6-.1a.8.8 0 0 1-.4-.4l-3.6-8.1-.1-.5.2-.5c.2-.2.4-.2.6-.2l.5.1.4.4 2.8 6.6 2.8-6.6c.2-.4.4-.6.8-.6.5-.1.7 0 .8.1zM320.6 87.9c.2.2.3.4.3.7v8.1c0 .2-.1.5-.3.6l-.6.3c-.3 0-.5-.1-.6-.3l-.2-.6v-.5a4 4 0 0 1-3.1 1.6c-.8 0-1.6-.2-2.3-.7s-1.2-1-1.6-1.8a5.8 5.8 0 0 1 0-5.2 4.5 4.5 0 0 1 3.9-2.5c.7 0 1.3.1 1.8.4.6.3 1 .6 1.4 1v-.4l.2-.7c.1-.2.4-.3.6-.3l.5.3zm-2.9 7.8a3.4 3.4 0 0 0 1.5-3 4 4 0 0 0-.4-1.8 3.2 3.2 0 0 0-2.7-1.7 3 3 0 0 0-1.6.4 3.4 3.4 0 0 0-1.5 3 3.4 3.4 0 0 0 1.5 3c.5.3 1 .4 1.6.4.6.1 1.2 0 1.6-.3zM326.7 89.5v5.6c0 .6.3.9.8.9l.4-.1.4-.1.4.2.2.5c0 .3-.1.5-.4.7-.3.2-.6.3-1 .3l-1.1-.1c-.3-.1-.6-.3-.9-.7-.3-.4-.4-.9-.4-1.6v-5.6H324l-.6-.2c-.2-.2-.2-.4-.2-.6l.2-.6.6-.2h1.1v-1.6c0-.2.1-.5.3-.6l.6-.3c.2 0 .5.1.6.3l.3.6v1.6h1.6l.6.2c.2.1.2.4.2.6l-.2.6-.6.2h-1.8zM339.9 92.9c-.2.2-.4.2-.6.2h-6.6c.1.9.4 1.6 1 2.2.6.5 1.3.8 2.2.8a3.3 3.3 0 0 0 2.5-1l.5-.2.5.2.2.5c0 .3-.1.5-.4.7-.4.4-.8.7-1.4.9-.6.2-1.2.4-1.8.4a6 6 0 0 1-2.7-.6 4 4 0 0 1-1.8-1.8 6.4 6.4 0 0 1 0-5.4c.4-.8 1-1.4 1.7-1.8.7-.4 1.5-.6 2.3-.6a4.6 4.6 0 0 1 3.9 2.3c.4.7.6 1.5.7 2.4.1.4 0 .6-.2.8zm-6.1-3.1c-.5.4-.8 1-1 1.8h5.5v-.1c-.1-.7-.4-1.2-.9-1.6s-1.1-.6-1.8-.6c-.6-.1-1.3.1-1.8.5zM351.4 84l.3.6v12c0 .2-.1.5-.3.6l-.6.3c-.3 0-.5-.1-.6-.3l-.2-.6v-.5a4 4 0 0 1-3.1 1.6c-.8 0-1.6-.2-2.3-.7a4 4 0 0 1-1.6-1.8 5.8 5.8 0 0 1 0-5.2 4.5 4.5 0 0 1 3.9-2.5c.7 0 1.3.1 1.8.4.6.3 1 .6 1.4 1.1v-4.4l.2-.6.6-.3c.2.1.4.1.5.3zm-2.9 11.7a3.4 3.4 0 0 0 1.5-3 4 4 0 0 0-.4-1.8c-.3-.5-.6-.9-1.1-1.2a3 3 0 0 0-1.6-.4 3 3 0 0 0-1.6.4 3.4 3.4 0 0 0-1.5 3 3.4 3.4 0 0 0 1.5 3c.5.3 1 .4 1.6.4.7 0 1.2-.1 1.6-.4zM354.8 97.3c-.2-.2-.2-.4-.2-.7v-.4l.2-.7c.2-.2.4-.2.7-.2h.2l.7.2c.2.2.2.4.2.7v.4c0 .6-.3 1-.9 1h-.2a1 1 0 0 1-.7-.3z" fill="#001722"/>
  <g>
    <path d="M43.9 28.2c-.5 0-1 .2-1.3.5-.3.4-.5.8-.5 1.3v8.7a18 18 0 0 0-7-8.2 19.1 19.1 0 0 0-21.1-.1c-3.2 2-5.7 4.9-7.5 8.5a24.7 24.7 0 0 0-2.7 10.9v1.3c0 4.5.9 8.5 2.8 12.1 1.8 3.6 4.4 6.5 7.5 8.5a19.1 19.1 0 0 0 21.2-.2 21 21 0 0 0 6.9-8v32.8c0 .5.2.9.5 1.3s.8.5 1.3.5.9-.2 1.3-.5c.4-.4.5-.8.5-1.3V30c0-.5-.2-.9-.5-1.3-.4-.3-.9-.5-1.4-.5zM42.5 51c0 3.9-.8 7.3-2.3 10.4a18.5 18.5 0 0 1-6.2 7.3 16.6 16.6 0 0 1-18-.1 18.7 18.7 0 0 1-6.3-7.3c-1.6-3-2.3-6.5-2.3-10.3v-1.3a23 23 0 0 1 2.3-9.1 16.5 16.5 0 0 1 24.2-7.3c2.7 1.7 4.8 4.2 6.3 7.2 1.3 2.7 2 5.8 2.2 9.1l.1 1.4zM94.8 28.7c-.5 0-1 .2-1.3.5-.3.4-.5.8-.5 1.3V56.8c0 4.5-1.3 8-3.8 10.4a14.8 14.8 0 0 1-10.6 3.7c-4.5 0-8-1.2-10.5-3.7-2.5-2.4-3.8-5.9-3.8-10.4V30.6c0-.5-.2-.9-.5-1.3s-.8-.5-1.3-.5-.9.2-1.3.5c-.4.4-.5.8-.5 1.3V56.9c0 5.7 1.6 10.1 4.8 13.1 3.2 3 7.6 4.5 13.1 4.5S88.5 73 91.8 70c3.2-3 4.8-7.3 4.8-13.1V30.6c0-.5-.2-.9-.5-1.3s-.7-.6-1.3-.6zM148.6 28.7c-.5 0-1 .2-1.3.5-.3.4-.5.8-.5 1.3v8a17 17 0 0 0-6.8-8.2 19.9 19.9 0 0 0-28.8 8.3c-1.7 3.3-2.6 7-2.7 11v1.1c0 4.5.9 8.6 2.7 12.3 1.8 3.6 4.3 6.5 7.5 8.6 3.2 2.1 6.8 3.1 10.8 3.1 3.8 0 7.3-1 10.4-3.1 3.1-2.1 5.5-4.7 7-7.7V72c0 .5.2.9.5 1.3s.8.5 1.3.5.9-.2 1.3-.5c.4-.4.5-.8.5-1.3V30.6c0-.5-.2-.9-.5-1.3-.4-.4-.8-.6-1.4-.6zm-1.4 22.1c0 3.9-.8 7.4-2.3 10.5a18.2 18.2 0 0 1-6.3 7.4 15.9 15.9 0 0 1-9 2.7c-3.4 0-6.4-.9-9-2.7a17.4 17.4 0 0 1-6.2-7.4 23.8 23.8 0 0 1-2.2-11.6 22 22 0 0 1 2.2-9.3c1.5-3 3.6-5.4 6.3-7.1a16.6 16.6 0 0 1 18 .1 18 18 0 0 1 6.3 7.3c1.4 2.8 2.1 5.8 2.2 9.1v1zM202.6 2.8c-.5 0-1 .2-1.3.5-.3.4-.5.8-.5 1.3l-.2 34.1a18 18 0 0 0-7-8.2 19.1 19.1 0 0 0-21.1-.1c-3.2 2-5.7 4.9-7.6 8.5a24.7 24.7 0 0 0-2.7 10.9v1.3c0 4.5.9 8.5 2.8 12.1a21 21 0 0 0 7.6 8.5 19.1 19.1 0 0 0 21.2-.2 21 21 0 0 0 6.9-8v8.6c0 .5.2.9.5 1.3s.8.5 1.3.5.9-.2 1.3-.5c.4-.4.5-.8.5-1.3V49.7l.2-45.1c0-.5-.2-.9-.5-1.3-.4-.3-.9-.5-1.4-.5zM201 51c0 3.9-.8 7.3-2.3 10.4a18.5 18.5 0 0 1-6.2 7.3 16.6 16.6 0 0 1-18-.1 18.7 18.7 0 0 1-6.3-7.3 23.4 23.4 0 0 1-2.3-10.4v-1.3a23 23 0 0 1 2.3-9.1 16.5 16.5 0 0 1 24.2-7.3c2.7 1.7 4.8 4.2 6.3 7.2 1.3 2.7 2 5.8 2.2 9.1l.1 1.5zM309.6 27.3c-3.2 0-6.4.9-9.5 2.6a20 20 0 0 0-7.4 6.7v-6.1c0-.5-.2-.9-.5-1.3s-.8-.5-1.3-.5-.9.2-1.3.5c-.4.4-.5.8-.5 1.3V72c0 .5.2.9.5 1.3s.8.5 1.3.5.9-.2 1.3-.5c.4-.4.5-.8.5-1.3V44.7c0-2.5.8-4.8 2.4-7a17 17 0 0 1 6.3-5.2c2.6-1.3 5.2-1.9 7.8-1.9 4.3 0 7.6 1.3 9.7 3.9 2.1 2.6 3.2 6 3.2 10.1v27.3c0 .5.2.9.5 1.3s.8.5 1.3.5.9-.2 1.3-.5c.4-.4.5-.8.5-1.3V44.4a18 18 0 0 0-4.1-12.3c-2.6-3.2-6.6-4.8-12-4.8zM356.7 28.9c-.4-.4-.8-.5-1.2-.5h-7.8V16.9c0-.5-.2-.9-.5-1.3s-.8-.5-1.3-.5-.9.2-1.3.5c-.4.4-.5.8-.5 1.3v11.5h-7.4c-.5 0-.9.2-1.2.5-.3.3-.5.7-.5 1.2 0 .4.2.8.5 1.2.4.4.8.5 1.2.5h7.4v32.4c0 3.2.6 5.5 1.7 6.9 1.1 1.4 2.2 2.2 3.2 2.4 1 .2 2.3.3 3.8.3 1 0 1.8-.2 2.5-.6.7-.4 1.1-.9 1.1-1.4 0-.4-.2-.8-.5-1.1-.3-.3-.7-.5-1.1-.5l-1.1.2-1 .2c-1.4 0-2.6-.4-3.6-1.3-.9-.9-1.4-2.6-1.4-5.3V31.8h7.8c.5 0 .9-.2 1.2-.5.3-.3.5-.7.5-1.2a2 2 0 0 0-.5-1.2zM275.4 49.8l.5-.1.8-.5c.4-.4.5-.8.5-1.3-.1-4.5-1.1-8.3-3.1-11.4a17.8 17.8 0 0 0-7.5-6.9c-3-1.5-6.3-2.3-9.9-2.3-3.6 0-6.9 1-10 2.9a20.8 20.8 0 0 0-7.6 8.4c-1.7 3.3-2.6 7-2.8 11.2v1.5c0 4.7 1 8.8 2.9 12.4 2 3.6 4.7 6.3 8.2 8.2 3.5 1.9 7.5 2.9 12 2.9 3.4 0 6.5-.8 9.5-2.5s5.4-3.9 7.4-6.5c.2-.3.4-.7.4-1.1 0-.4-.2-.8-.5-1.1-.3-.3-.7-.5-1.1-.5-.6 0-1.1.3-1.5.8-1.4 2.2-3.5 4-6 5.4a20.2 20.2 0 0 1-18.9-.6c-3-1.8-5.2-4.3-6.7-7.4a23.3 23.3 0 0 1-2.3-10.3v-1.2h35.7zm-31.6-11.9c1.8-2.3 3.8-4.1 6.1-5.2 2.3-1.2 4.6-1.8 6.8-1.8 2.7 0 5.2.6 7.6 1.7a15.5 15.5 0 0 1 9 12.9v.8H240a26 26 0 0 1 3.8-8.4z" fill="#001722"/>
    <path d="M221 26.8a2 2 0 0 0-1.6.7c-.5.5-.7 1-.7 1.6v43c0 .6.2 1.1.6 1.6.4.5 1 .7 1.7.7a2 2 0 0 0 1.6-.7c.5-.5.7-1 .7-1.6v-43c0-.6-.2-1.1-.6-1.6-.4-.4-1-.7-1.7-.7zM236.5 2.7h-16.8a2 2 0 0 0-2 2c0 1.1.9 2 2 2h14.9V23c0 1.1.9 2 2 2a2 2 0 0 0 2-2V4.6a2 2 0 0 0-2.1-1.9z" fill="#73be44"/>
  </g>
</svg>
