<svg xmlns="http://www.w3.org/2000/svg" viewBox="0 0 400 156" fill="#36a8e1">
  <path fill-rule="evenodd" d="M279.5 1.3c-1.5 1.2-1.5 1.3-1.5 21v19.6l-28.8.3a304 304 0 0 0-31.8 1c-8.7 2.4-16 8.1-19.6 15.3l-2.1 4.5V133.7l1.6 4a38.3 38.3 0 0 0 16.4 16.4l4 1.6 34 .2c37.2.2 39 0 46.7-3.6a33 33 0 0 0 13.4-12.8l1.9-3.8.1-67.9L314 0h-16.5c-15.1 0-16.6.1-18 1.3m59.3.4c-8.1 4-8.8 6.3-8.8 28.8V48h3.2l9.3.4 6.1.5V33.7c0-16.1.1-17 3.2-17 4 0 4.2.6 4.2 10 0 16.8 4.7 21.3 22.1 21.3 20.3 0 21.9-2.2 21.9-29.6V0h-18v30l-1.7 1c-1.4 1-2 1-3.6.3l-2-.8v-9c0-12.2-2-16.3-9.7-20a47 47 0 0 0-26.2.2m-312.4 41c-13.3 2-22 8.4-25 18.5C0 65.5 0 67.2.1 110.7l.1 45h35.4l.3-40c.2-22 .6-40.4.9-40.9 1.5-2.4 4.7-3 15.8-3.4l11-.4V42.3H47c-9.2 0-18.5.1-20.6.5m73.3.2c-19.2 3.6-24 10.7-24 35.7V95l1.8 3.1c7 11.8 18.7 15.9 46 15.9 17.5 0 17.8 0 19.5 1.5 2.8 2.4 3 6.6.5 9.1l-2 2h-32l-31.8.1-1.2 1.6c-1 1.5-1.2 3-1 14.5l.2 12.9 39.8.1c49.6.3 49 .3 58.4-9.4 7-7.3 7.4-8.7 7.4-26.1 0-17-.2-18-6.6-25-8.5-9.6-12.7-10.8-38.7-11-23.2-.3-22.8-.2-24.3-3.2-1.5-3.3-1.3-4.8 1-7.3l1.9-2.1 33.3-.2 33.4-.2V42h-38.5c-28.4.1-39.7.4-43.1 1m174 30c4.5 2 4.3.5 4.3 27.4V124l-2.2 1.3c-2.8 1.8-37.8 2-41 .4-2.8-1.4-2.8-1.1-2.8-25.8 0-26.9 0-26.6 7-28.1 5.6-1.2 31.5-.4 34.7 1.1"/>
</svg>
