<svg xmlns="http://www.w3.org/2000/svg" viewBox="0 0 297.5 98" fill="#4cae4c">
  <path d="M10.4 69.1l7.3-1.3V11l-7.1-.8V6H33v4.2l-7 .8v26.8h33V11L52 10V6h22.4v4.2l-7 .8v57l7.4 1.2v3.7H51.7V69L59 68v-25h-33v25l7.4 1.2v3.7H10.4V69z" />
  <path d="M78.3 87.4l1.7.3 1.7.2c1 0 2.1-.2 3.3-.6 1.3-.4 2.5-1.1 3.7-2.2 1.2-1 2.4-2.6 3.6-4.6 1.2-2 2.2-4.5 3.2-7.7h-1.9L76.4 29.9l-4.5-.7v-4.6h20v4.6l-6.3.8 10.1 29 3 8.7L101 59l8.8-29-6.8-.7v-4.6h18.6v4.6l-4.8.7-5 14.7a2850.6 2850.6 0 0 1-8.5 24.2l-1.3 3.5a69.9 69.9 0 0 1-4.1 9.9 36.3 36.3 0 0 1-3.6 6 20 20 0 0 1-4.1 4c-1.5 1.1-3 1.9-4.9 2.3-1.1.3-2.4.5-3.8.5h-.9a11.1 11.1 0 0 1-1.9-.4 2 2 0 0 1-.6-.3v-7z"/>
  <path d="M119.4 69.1l7.3-.9V10l-7-1.5V4.6l13.6-1.8 1.7 1v64.4l7.7 1v3.6h-23.3V69zM142.9 59c.2-2 .8-3.8 2-5.4a16 16 0 0 1 4-3.9c1.6-1 3.4-2 5.3-2.7a44.6 44.6 0 0 1 16.5-2.8v-3.8c0-2.3-.3-4.1-1-5.5a8 8 0 0 0-6.2-5 23.6 23.6 0 0 0-14 1.5l-3.2 1.3-1.6-3.8a16 16 0 0 1 4-2.3 37.3 37.3 0 0 1 13.4-2.9c2.2 0 4.4.3 6.4.7 2 .5 3.9 1.4 5.4 2.5 1.6 1.2 2.8 2.8 3.7 4.9 1 2 1.4 4.6 1.4 7.7l-.1 29.6h5.5V72a19.9 19.9 0 0 1-9.9 1.7c-.6 0-1.1-.3-1.6-.5-.5-.3-1-.8-1.3-1.4-.3-.6-.5-1.4-.5-2.5v-1.2a14 14 0 0 1-5.4 4c-1.2.6-2.5 1-4 1.3-1.5.3-3.1.4-5 .4-2.2 0-4.2-.4-6-1.2a13 13 0 0 1-7.3-8c-.6-1.8-.7-3.7-.5-5.7zm8.3 0c0 1.8.3 3.2.7 4.4a7 7 0 0 0 2 2.9c1 .7 2 1.2 3.2 1.6 1.3.3 2.7.5 4.3.5.9 0 1.7-.2 2.6-.4a18.8 18.8 0 0 0 4.9-2l1.7-1.3v-8-8.1a48 48 0 0 0-8.2.9c-1.5.3-2.9.7-4.2 1.2-1.4.5-2.5 1.2-3.6 2-1 .8-1.8 1.7-2.4 2.7-.6 1-1 2.3-1 3.7zM186 69.1l5.8-.8V33.2l-6.2-3.4v-2.7l11.5-3.4 2 .9v6.2a36.8 36.8 0 0 1 12.7-6.3c1.6-.5 3.1-.7 4.6-.8 2.7 0 5 .3 6.7 1 1.8.7 3.3 2 4.4 3.6 1.1 1.6 2 3.7 2.4 6.3.5 2.6.7 5.7.7 9.3v24.3l7 1v3.6h-21.7V69l6.5-.9V45.4c0-2.6-.2-4.9-.4-6.9a13 13 0 0 0-1.6-4.9 6.8 6.8 0 0 0-3.1-2.8 12 12 0 0 0-5.3-.8 20 20 0 0 0-5.7 1.2c-2 .7-4 1.8-6.2 3.3v33.7l6.4 1v3.6H186V69zM254.4 73.8a16.4 16.4 0 0 1-13-5.9c-1.8-2-3.2-4.5-4.2-7.5a33.3 33.3 0 0 1 .3-21.5 24 24 0 0 1 23-15.7 32 32 0 0 1 8.1 1V10l-9.2-1.5V4.6L275 2.8l2 1V69h5.8v3.3l-1.8.7a24 24 0 0 1-8.9 1c-.5 0-1-.3-1.5-.5-.5-.3-.8-.8-1.1-1.4-.3-.6-.5-1.4-.5-2.5v-1c-.4.4-1 1-1.9 1.6a24.7 24.7 0 0 1-12.6 3.5zm3.3-5.9a20.4 20.4 0 0 0 4.8-.5A14 14 0 0 0 266 66c1-.6 1.8-1.2 2.5-1.9v-33l-1.2-1c-.4-.5-1-.9-1.7-1.2l-2.7-.8a17.3 17.3 0 0 0-7 0 15.2 15.2 0 0 0-9.5 7.5c-.8 1.5-1.4 3.2-2 5.1-.4 2-.7 4.2-.7 6.7 0 3.5.3 6.6 1 9.1.9 2.6 1.9 4.8 3.2 6.4a12 12 0 0 0 9.7 5zM285 2.9a5.2 5.2 0 1 1 0 10.5 5.2 5.2 0 1 1 0-10.5zm0 9.7c2.4 0 4.3-2 4.3-4.5a4.3 4.3 0 1 0-8.7 0c0 2.6 2 4.5 4.4 4.5zm-2-7.5h2.3c1.5 0 2.1.5 2.1 1.7 0 1.1-.7 1.6-1.6 1.7l1.8 2.7h-1l-1.7-2.6h-1v2.6h-1V5zm.9 2.7h1c.8 0 1.6 0 1.6-1 0-.8-.7-1-1.4-1H284v2z" />
</svg>
