<svg xmlns="http://www.w3.org/2000/svg" viewBox="0 0 62 30" fill="#8DC63F">
    <path d="M56 13.7a1 1 0 0 0-1-1H42.1c-2.3 0-4.2 1.7-4.2 4s1.9 4.2 4.2 4.2h10.2c1 0 1.8.9 1.8 1.9 0 1-.8 1.9-1.8 1.9H39.7c-.6 0-1.1.4-1.1 1s.5 1.2 1 1.2h12.8c2.3 0 4.2-1.8 4.2-4.1 0-2.4-1.9-4.1-4.2-4.1H42.2c-1 0-1.8-1-1.8-2s.8-1.8 1.8-1.8h12.7c.6 0 1.1-.5 1.1-1.2zM33.6 7.8c0-1-.7-1.7-1.6-1.7s-1.6.8-1.6 1.7c0 .9.7 1.6 1.6 1.6.9 0 1.6-.8 1.6-1.6zM28.5 7.8c0-1-.8-1.7-1.6-1.7s-1.7.8-1.7 1.7c0 .9.8 1.6 1.7 1.6.9 0 1.6-.8 1.6-1.6zM23.3 7.8c0-1-.7-1.7-1.6-1.7s-1.6.8-1.6 1.7c0 .9.7 1.6 1.6 1.6 1 0 1.6-.8 1.6-1.6zM18.3 7.8c0-1-.8-1.7-1.7-1.7S15 7 15 7.8c0 .9.7 1.6 1.6 1.6 1 0 1.7-.8 1.7-1.6zM13.1 7.8c0-1-.7-1.7-1.6-1.7S10 7 10 7.8c0 .9.7 1.6 1.6 1.6 1 0 1.6-.8 1.6-1.6zM24.9 12.6h-11c-4.3 0-7.2 2.9-7.2 7.2v6a1.2 1.2 0 1 0 2.4 0v-6c0-3 1.8-5 4.8-5h10.9a1 1 0 0 0 1.2-1c0-.6-.5-1.2-1.1-1.2z"/>
    <path d="M10.3 19.8a1 1 0 0 0 1.1 1h11c.7 0 1.2-.4 1.2-1s-.5-1.1-1.1-1.1h-11c-.7 0-1.2.5-1.2 1zM30.8 13.7v12a1.2 1.2 0 1 0 2.4 0v-12c0-.6-.6-1.2-1.2-1.2-.7 0-1.2.6-1.2 1.2z"/>
</svg>