<svg xmlns="http://www.w3.org/2000/svg" viewBox="0 0 209 61">
  <g fill="none" fill-rule="evenodd">
    <path fill="#131211" d="M168 17.2h13.9v26.6h-14zM182 3.1v14.1h13.9v26.6h-14v14h26.3V3.2H182z"/>
    <path fill="#E60000" d="M155.6 56.3h52.6V61h-52.6zM155.6 0h52.6v4.7h-52.6z"/>
    <path fill="#131210" d="M15.3 29.7a7.9 7.9 0 0 0-1.6-1 4.4 4.4 0 0 0-5.1 1 4.8 4.8 0 0 0-1.3 3.5 5 5 0 0 0 1.3 3.5c.8 1 2 1.4 3.4 1.4a4.9 4.9 0 0 0 3.3-1.4v6c-.8.4-1.5.7-2.3.9-.8.2-1.6.2-2.4.2a10 10 0 0 1-7.2-3 10.1 10.1 0 0 1-2.2-3.2 11.7 11.7 0 0 1 0-8.6 10 10 0 0 1 5.6-5.7 10.6 10.6 0 0 1 6.4-.5 8 8 0 0 1 2 .9v6zm14-7.2c1.6 0 3 .3 4.4.7 1.3.5 2.5 1.2 3.6 2.1a9.8 9.8 0 0 1 2.4 3.4c.6 1.3 1 2.8 1 4.5 0 1.7-.4 3.2-1 4.5a9.9 9.9 0 0 1-2.4 3.4c-1 .9-2.3 1.6-3.6 2a13.1 13.1 0 0 1-8.6 0 10.9 10.9 0 0 1-3.6-2 9.8 9.8 0 0 1-2.5-3.3 10.7 10.7 0 0 1-1-4.6c0-1.7.4-3.2 1-4.5a9.8 9.8 0 0 1 2.4-3.4c1-.9 2.3-1.6 3.6-2 1.4-.5 2.8-.8 4.3-.8zm0 6.2a4.2 4.2 0 0 0-3 1.3c-.5.4-.7 1-1 1.5a5 5 0 0 0-.2 1.7 4.7 4.7 0 0 0 1 3.2c.8.9 1.9 1.3 3.3 1.3s2.4-.4 3.1-1.3a4.7 4.7 0 0 0 1.1-3.2 5 5 0 0 0-.3-1.7 4.2 4.2 0 0 0-2.1-2.4 4.2 4.2 0 0 0-1.8-.4zm21-3h.1a7.2 7.2 0 0 1 2.6-2.4 7.4 7.4 0 0 1 7 .2c1.1.6 2 1.5 2.7 2.9a6.6 6.6 0 0 1 2.7-2.9 7.4 7.4 0 0 1 3.7-1 7 7 0 0 1 3 .6 5 5 0 0 1 2 1.7c.5.7.8 1.5 1 2.5.3 1 .4 2 .4 3.2v12.7h-6.7v-9.6V32a7.2 7.2 0 0 0-.3-1.8c-.2-.5-.4-1-.8-1.4-.4-.3-1-.5-1.6-.5-.8 0-1.4.2-1.8.5a3 3 0 0 0-1 1.3l-.3 1.8-.1 1.8v9.6h-6.6v-9.6l-.1-1.8a7 7 0 0 0-.3-1.8 3.3 3.3 0 0 0-1-1.4 2.4 2.4 0 0 0-1.6-.6c-.7 0-1.3.2-1.7.6-.4.4-.7.8-.9 1.4a7.3 7.3 0 0 0-.3 1.8v11.4h-6.7v-20h6.6v2.5zm35.3-.2a5.6 5.6 0 0 1 2.5-2.2 7.5 7.5 0 0 1 3.2-.8c1.4 0 2.7.3 3.8 1a9.4 9.4 0 0 1 3 2.3c.9 1 1.5 2 2 3.4a12.2 12.2 0 0 1 0 8.1 11.1 11.1 0 0 1-2 3.4 8.8 8.8 0 0 1-6.7 3.1c-1.1 0-2.2-.1-3.2-.6a6.3 6.3 0 0 1-2.6-2v12h-6.7v-30h6.7v2.3zm4 3.2a4.2 4.2 0 0 0-3.1 1.3 4 4 0 0 0-.9 1.5 5.1 5.1 0 0 0-.3 1.7c0 1.3.4 2.3 1.2 3.2a4 4 0 0 0 3.1 1.3 4 4 0 0 0 3.2-1.3 4.7 4.7 0 0 0 1.1-3.2 5 5 0 0 0-.3-1.7 4.2 4.2 0 0 0-2.2-2.4 4.2 4.2 0 0 0-1.8-.4zM124 43.2h-6.7V41a5.3 5.3 0 0 1-2.5 2.2c-1 .4-2.1.7-3.2.7a8.5 8.5 0 0 1-3.8-1 9.4 9.4 0 0 1-3-2.2 10.7 10.7 0 0 1-2-3.4 12.2 12.2 0 0 1 2-11.6 9 9 0 0 1 2.9-2.3 8.5 8.5 0 0 1 3.8-.9c1.1 0 2.2.3 3.2.7a6.5 6.5 0 0 1 2.6 2v-2h6.7v20zm-10.7-14.5A4.2 4.2 0 0 0 110 30c-.4.4-.6 1-.8 1.5a5.1 5.1 0 0 0-.3 1.7c0 1.3.3 2.4 1.1 3.2.7.9 1.8 1.3 3.2 1.3s2.4-.4 3.1-1.3a5.3 5.3 0 0 0 .8-5 4.2 4.2 0 0 0-2.1-2.3 4.2 4.2 0 0 0-1.8-.4zm20.4-2.2a6 6 0 0 1 2.6-2.7 7.4 7.4 0 0 1 3.5-.9h1.3v6.9a4 4 0 0 0-1.4-.6 8.5 8.5 0 0 0-1.4-.1c-1 0-1.7.1-2.3.5-.6.3-1 .7-1.4 1.2a5.3 5.3 0 0 0-.7 2 13 13 0 0 0-.2 2.3v8h-6.7V23.3h6.7v3.3zm17.8 16.7h-6.7V29h-2.1v-5.8h2.1v-6h6.7v6h3.8V29h-3.8v14.2z"/>
  </g>
</svg>
